<svg xmlns="http://www.w3.org/2000/svg" width="24" height="24" viewBox="0 0 24 24"><g fill="none" stroke="##1D232A" stroke-dasharray="4" stroke-dashoffset="4" stroke-linecap="round" stroke-linejoin="round" stroke-width="1"><path d="M13 4h1.5M13 4h-1.5M13 4v1.5M13 4v-1.5" stroke-dashoffset="4"/><path d="M19 11h1.5M19 11h-1.5M19 11v1.5M19 11v-1.5" stroke-dashoffset="4"/><path d="M19 4h1.5M19 4h-1.5M19 4v1.5M19 4v-1.5" stroke-dashoffset="4"/></g><path fill="none" stroke="##1D232A" stroke-linecap="round" stroke-linejoin="round" stroke-width="2" d="M7 6 C7 12.08 11.92 17 18 17 C18.53 17 19.05 16.96 19.56 16.89 C17.95 19.36 15.17 21 12 21 C7.03 21 3 16.97 3 12 C3 8.83 4.64 6.05 7.11 4.44 C7.04 4.95 7 5.47 7 6 Z"/></svg>